<?xml version="1.0" standalone="no"?>
<!DOCTYPE svg PUBLIC "-//W3C//DTD SVG 20010904//EN" "http://www.w3.org/TR/2001/REC-SVG-20010904/DTD/svg10.dtd">
<!-- Created using Krita: http://krita.org -->
<svg xmlns="http://www.w3.org/2000/svg" 
    xmlns:xlink="http://www.w3.org/1999/xlink"
    xmlns:krita="http://krita.org/namespaces/svg/krita"
    xmlns:sodipodi="http://sodipodi.sourceforge.net/DTD/sodipodi-0.dtd"
    width="184.32pt"
    height="184.32pt"
    viewBox="0 0 184.32 184.32">
<defs>
  <linearGradient id="gradient0" gradientUnits="objectBoundingBox" x1="0" y1="0" x2="1" y2="1" spreadMethod="pad">
   <stop stop-color="#000000" offset="0" stop-opacity="1"/>
   <stop stop-color="#000000" offset="1" stop-opacity="0"/>
  </linearGradient>
 </defs>
<rect id="shape0" transform="matrix(0.999999960263572 0 0 0.999999960263572 8.27999967098234 8.63999965667726)" fill="#000000" fill-rule="evenodd" stroke="#ffffff" stroke-width="3.7296" stroke-linecap="square" stroke-linejoin="bevel" width="167.76" height="167.04"/><path id="shape01" transform="matrix(0.999999960263572 0 0 0.999999960263572 22.144856998261 23.4193759640681)" fill="#d00000" fill-rule="evenodd" stroke="#00ff02" stroke-width="3.7296" stroke-linecap="square" stroke-linejoin="miter" stroke-miterlimit="2" d="M0 3.55271e-14L140.03 0"/><path id="shape02" transform="matrix(0.999999944432153 0 0 0.999999944432153 22.1450002284736 37.1300210222169)" fill="url(#gradient0)" stroke="#00ff02" stroke-width="3.7296" stroke-linecap="square" stroke-linejoin="miter" stroke-miterlimit="2" d="M0 3.55271e-14L140.03 0"/><path id="shape01" transform="matrix(0.999999944432153 0 0 0.999999944432153 22.1450002284734 50.8579427020827)" fill="#ff6a71" stroke="#d00000" stroke-width="3.7296" stroke-linecap="square" stroke-linejoin="miter" stroke-miterlimit="2" d="M0 3.55271e-14L140.03 0"/><path id="shape02" transform="matrix(0.999999944432153 0 0 0.999999944432153 22.1450002284734 65.0949812507326)" fill="none" stroke="#00ff02" stroke-width="3.7296" stroke-linecap="square" stroke-linejoin="miter" stroke-miterlimit="2" d="M0 3.55271e-14L140.03 0"/><path id="shape03" transform="matrix(0.999999944432153 0 0 0.999999944432153 22.1450002284734 78.8229029305986)" fill="none" stroke="#00ff02" stroke-width="3.7296" stroke-linecap="square" stroke-linejoin="miter" stroke-miterlimit="2" d="M0 3.55271e-14L140.03 0"/><path id="shape04" transform="matrix(0.999999944432153 0 0 0.999999944432153 22.1450002284734 92.1599963378908)" fill="none" stroke="#d00000" stroke-width="3.7296" stroke-linecap="square" stroke-linejoin="miter" stroke-miterlimit="2" d="M0 3.55271e-14L140.03 0"/><path id="shape05" transform="matrix(0.999999927767132 0 0 0.999999927767132 22.145001395275 105.870639545101)" fill="none" stroke="#00ff02" stroke-width="3.7296" stroke-linecap="square" stroke-linejoin="miter" stroke-miterlimit="2" d="M0 3.55271e-14L140.03 0"/><path id="shape06" transform="matrix(0.999999911610294 0 0 0.999999911610294 22.1450025264961 119.599516330825)" fill="none" stroke="#00ff02" stroke-width="3.7296" stroke-linecap="square" stroke-linejoin="miter" stroke-miterlimit="2" d="M0 3.55271e-14L140.03 0"/><path id="shape07" transform="matrix(0.999999895778876 0 0 0.999999895778876 22.1450036349327 133.310161084539)" fill="none" stroke="#d00000" stroke-width="3.7296" stroke-linecap="square" stroke-linejoin="miter" stroke-miterlimit="2" d="M0 3.55271e-14L140.03 0"/><path id="shape08" transform="matrix(0.999999895778876 0 0 0.999999895778876 22.1450036349327 147.0198489871)" fill="none" stroke="#d00000" stroke-width="3.7296" stroke-linecap="square" stroke-linejoin="miter" stroke-miterlimit="2" d="M0 3.55271e-14L140.03 0"/><path id="shape09" transform="matrix(0.999999895778876 0 0 0.999999895778876 22.1450036349327 159.802472038616)" fill="none" stroke="#00ff02" stroke-width="3.7296" stroke-linecap="square" stroke-linejoin="miter" stroke-miterlimit="2" d="M0 3.55271e-14L140.03 0"/>
</svg>
